<?xml version="1.0" standalone="no"?>
<!DOCTYPE svg PUBLIC "-//W3C//DTD SVG 20010904//EN"
 "http://www.w3.org/TR/2001/REC-SVG-20010904/DTD/svg10.dtd">
<svg version="1.0" xmlns="http://www.w3.org/2000/svg"
 width="700.000000pt" height="700.000000pt" viewBox="0 0 700.000000 700.000000"
 preserveAspectRatio="xMidYMid meet">
<metadata>
Created by potrace 1.11, written by Peter Selinger 2001-2013
</metadata>
<g transform="translate(0.000000,700.000000) scale(0.100000,-0.100000)"
fill="#000000" stroke="none">
<path d="M2988 6083 c-27 -7 -22 -26 16 -72 34 -41 52 -78 43 -87 -7 -8 -35
-7 -110 1 -63 7 -70 6 -92 -15 -30 -28 -34 -84 -7 -98 17 -9 26 -9 90 3 38 7
62 -7 62 -36 0 -23 -34 -33 -91 -26 -31 3 -52 -1 -78 -15 -38 -21 -90 -58
-113 -81 -52 -52 -130 -96 -186 -107 -44 -9 -77 -24 -114 -51 -28 -21 -74 -47
-102 -58 -42 -16 -180 -78 -273 -123 -81 -39 -257 -229 -305 -328 -31 -65 -47
-162 -44 -265 3 -81 13 -129 52 -229 8 -20 -5 -18 -75 12 -51 22 -145 25 -211
7 -77 -22 -208 -114 -264 -185 -25 -32 -46 -61 -46 -64 0 -3 -13 -33 -30 -67
-39 -82 -59 -153 -80 -287 -17 -108 -17 -142 -5 -282 11 -128 100 -293 269
-499 84 -103 93 -111 116 -111 19 0 20 -2 6 -35 -17 -40 -15 -177 4 -265 15
-68 106 -261 149 -315 43 -52 159 -172 213 -219 24 -20 99 -71 168 -114 128
-79 168 -115 393 -351 69 -73 101 -99 151 -121 l64 -29 204 4 c238 6 302 9
343 18 17 4 46 9 65 12 49 8 128 60 226 150 6 5 28 24 49 40 21 17 43 35 49
41 30 30 102 74 153 95 32 13 90 43 128 68 220 140 324 212 355 248 74 85 128
160 144 197 24 57 76 239 82 289 4 23 8 43 9 45 2 2 -1 16 -5 32 -8 27 -6 30
25 40 19 6 64 39 102 73 37 34 87 75 111 91 74 50 191 203 215 281 9 28 29 85
45 128 17 42 35 99 41 125 6 26 14 58 17 72 4 14 8 68 11 120 6 114 -8 165
-87 310 -55 102 -74 123 -161 188 -76 57 -143 76 -241 68 -43 -3 -78 -4 -78
-1 0 3 8 22 18 43 10 20 20 61 21 91 2 30 11 78 21 105 21 55 25 120 15 206
-5 45 -17 71 -62 138 -59 87 -76 105 -188 200 -93 79 -248 232 -310 307 -55
66 -157 239 -181 306 -8 24 -31 73 -52 109 -20 36 -41 74 -47 85 -6 11 -27 28
-47 37 -20 9 -46 33 -58 52 -43 70 -108 96 -154 61 -17 -13 -18 -20 -9 -57 6
-24 14 -51 18 -60 9 -22 -143 60 -197 107 -51 43 -111 61 -160 48z"/>
<path d="M5284 3798 c-31 -9 -60 -21 -63 -25 -3 -5 -33 -26 -66 -48 -112 -74
-168 -143 -220 -271 -49 -123 -53 -220 -15 -309 5 -11 26 -76 46 -144 32 -107
44 -184 31 -197 -2 -2 -36 4 -75 15 -73 19 -113 19 -180 1 -30 -8 -56 -28
-108 -86 -128 -142 -173 -241 -178 -394 -3 -83 -6 -94 -33 -128 -44 -55 -52
-89 -51 -218 1 -136 16 -195 60 -241 26 -26 32 -42 34 -81 1 -26 16 -85 33
-130 28 -77 29 -85 15 -117 -41 -100 15 -244 116 -295 87 -44 162 -53 440 -54
283 0 351 4 467 30 84 18 104 35 130 103 9 25 29 61 45 79 15 18 28 43 29 55
0 12 1 40 1 62 0 29 10 52 39 91 35 48 38 57 35 106 -2 29 -13 75 -25 101 -32
75 -28 98 28 156 36 38 51 62 57 94 16 87 6 164 -30 216 -14 20 -26 47 -26 59
0 21 17 61 31 72 13 10 26 76 21 110 -5 42 -54 135 -88 167 -33 30 -74 51
-138 70 -84 25 -124 49 -130 80 -6 28 -3 127 9 258 3 39 17 109 31 156 13 47
27 95 29 107 3 12 7 30 9 40 44 180 49 306 15 398 -27 72 -77 124 -122 125
-18 0 -58 2 -89 2 -31 1 -83 -6 -114 -15z"/>
</g>
</svg>
