<?xml version="1.0" encoding="utf-8"?>
<!-- Generator: Adobe Illustrator 26.0.1, SVG Export Plug-In . SVG Version: 6.00 Build 0)  -->
<svg version="1.1" id="Layer_1" xmlns="http://www.w3.org/2000/svg" xmlns:xlink="http://www.w3.org/1999/xlink" x="0px" y="0px"
	 viewBox="0 0 700 700" style="enable-background:new 0 0 700 700;" xml:space="preserve">
<style type="text/css">
	.st0{fill:#F08000;stroke:#000000;stroke-width:18.2321;stroke-linecap:round;stroke-miterlimit:10;}
	.st1{fill:none;}
	.st2{font-family:'SneakerheadBTN';}
	.st3{font-size:107.5289px;}
</style>
<path d="M285.4,479.5c-0.2,3.6,1.8,7.2,5.3,8.4c3.9,1.4,8.2,1,12.3,0.4c13.4-2,26.8-2.7,40.3-3.4c1.7-0.1,3.5-0.2,5.2-0.3
	c10-0.6,20.1-1.1,30.1-1.7c8.4-0.5,17-1,24.8-4.1c11-4.3,19.8-13.8,23.2-25.1c2.8-9.2,2.2-19.1,3.2-28.8
	c3.9-39.7,33.9-71.8,45.9-109.9c14.9-47.3-1.5-102.6-39-135c-16.1-13.9-35.7-23.4-56.3-28.2c-20.8-4.8-42.7-4.9-63.5,0.1
	c-21,5-39.8,15.6-55.5,30.3c-13.5,12.7-24.4,28.1-31.5,45.2c-12.6,30.3-13.3,65.5-1.8,96.3c12.8,34.3,40,63.8,42.8,100.2
	c0.7,9,1.5,20.6,10.1,23.2c4,1.2,8.3-0.2,11.3-3.1c4.9-4.7,6.1-11.5,6.2-18c0.6-22.8-9.4-44.5-20.4-64.4c-11-20-23.5-39.7-28.6-61.9
	c-7.5-32.3,2.3-68.1,25-92.3s57.7-36.2,90.5-31.3c32.8,4.9,62.7,26.5,77.8,56c9.3,18.2,13.2,39.4,10.1,59.6
	c-7.4,47.6-51.4,85.7-50.4,133.8c0.1,6.7,1.1,13.9-2.3,19.7c-3.6,6.3-11.2,9.1-18.2,11.1c-12.8,3.6-25.9,6.2-39.1,7.7
	c-8.1,0.9-16.2,1.2-24.3,1.4c-7.5,0.2-15.4,0-22.6,2.7C291.5,470.2,285.8,473.8,285.4,479.5z"/>
<path d="M383.6,259.9c0.1,0,0.2,0,0.2,0c0.1,0,0.1,0,0.2,0L383.6,259.9z"/>
<polygon points="384,259.9 384,259.9 385.9,260 "/>
<path d="M405.5,263.1l2.2,0.1c-0.1,0-0.1,0-0.2,0c0,0-0.1,0-0.1,0L405.5,263.1z"/>
<g>
	<path d="M403,511.4l-108.5,5.4c-5.5,0.3-10.2-4-10.5-9.5v0c-0.3-5.5,4-10.2,9.5-10.5l108.5-5.4c5.5-0.3,10.2,4,10.5,9.5v0
		C412.7,506.4,408.5,511.1,403,511.4z"/>
</g>
<g>
	<path d="M402.6,538.2L294,543.6c-5.5,0.3-10.2-4-10.5-9.5l0,0c-0.3-5.5,4-10.2,9.5-10.5l108.5-5.4c5.5-0.3,10.2,4,10.5,9.5l0,0
		C412.3,533.2,408.1,537.9,402.6,538.2z"/>
</g>
<g>
	<path d="M403,564.9l-108.5,5.4c-5.5,0.3-10.2-4-10.5-9.5v0c-0.3-5.5,4-10.2,9.5-10.5l108.5-5.4c5.5-0.3,10.2,4,10.5,9.5l0,0
		C412.7,559.9,408.5,564.6,403,564.9z"/>
</g>
<path d="M395.6,571.9c1.3,26.2-18.8,48.5-45,49.9s-48.5-18.8-49.9-45L395.6,571.9z"/>
<path d="M375,258.3c0.1,0,0.1,0,0.2,0c0,0,0.1,0,0.1,0L375,258.3z"/>
<polygon points="375.3,258.4 375.3,258.4 376.6,258.4 "/>
<path d="M390.6,260.6l1.6,0.1c0,0-0.1,0-0.1,0c0,0-0.1,0-0.1,0L390.6,260.6z"/>
<line class="st0" x1="349" y1="121.2" x2="349" y2="78.2"/>
<rect x="280.4" y="235.8" class="st1" width="137.1" height="79.9"/>
<text transform="matrix(1 0 0 1 282.2305 307.3513)" class="st2 st3">{;}</text>
<line class="st0" x1="196.1" y1="274.1" x2="153.5" y2="280.1"/>
<line class="st0" x1="546.5" y1="281.2" x2="503.8" y2="276"/>
<line class="st0" x1="240.6" y1="167.7" x2="210.2" y2="137.3"/>
<line class="st0" x1="457.1" y1="168.1" x2="487.5" y2="137.7"/>
</svg>
