<?xml version="1.0" encoding="utf-8"?>
<!-- Generator: Adobe Illustrator 25.4.1, SVG Export Plug-In . SVG Version: 6.00 Build 0)  -->
<svg version="1.1" id="Layer_1" xmlns="http://www.w3.org/2000/svg" xmlns:xlink="http://www.w3.org/1999/xlink" x="0px" y="0px"
	 viewBox="0 0 1000 1000" style="enable-background:new 0 0 1000 1000;" xml:space="preserve">
<style type="text/css">
	.st0{fill:#F08000;}
	.st1{fill:#575757;}
	.st2{fill:#555555;}
	.st3{fill:none;stroke:#F08000;stroke-width:26.9933;stroke-linecap:round;stroke-miterlimit:10;}
	.st4{fill:none;}
	.st5{enable-background:new    ;}
</style>
<path class="st0" d="M404.4,717.3c-0.4,5.3,2.7,10.6,7.9,12.4c5.8,2,12.2,1.5,18.2,0.6c19.8-2.9,39.7-4,59.7-5
	c2.6-0.1,5.2-0.3,7.7-0.4c14.9-0.8,29.7-1.7,44.6-2.5c12.5-0.7,25.2-1.5,36.8-6c16.2-6.4,29.3-20.5,34.4-37.2
	c4.2-13.7,3.3-28.3,4.7-42.6c5.8-58.8,50.2-106.3,67.9-162.7c22-70.1-2.2-151.9-57.7-199.9c-23.8-20.6-52.8-34.6-83.4-41.7
	c-30.8-7.1-63.2-7.2-94,0.1c-31,7.4-58.9,23.1-82.2,44.9c-20,18.7-36.1,41.7-46.6,67c-18.7,44.9-19.7,97-2.6,142.6
	c19,50.7,59.3,94.4,63.4,148.4c1,13.3,2.2,30.5,15,34.4c5.9,1.8,12.4-0.3,16.8-4.5c7.3-7,9-17,9.2-26.6
	c0.9-33.7-13.9-65.8-30.2-95.4c-16.3-29.6-34.7-58.7-42.3-91.6c-11.1-47.9,3.4-100.8,37-136.7s85.4-53.6,134-46.4
	s92.8,39.2,115.2,82.9c13.8,27,19.6,58.3,14.9,88.3c-11,70.4-76.1,126.8-74.7,198.1c0.2,9.9,1.6,20.6-3.3,29.2
	c-5.4,9.4-16.5,13.5-26.9,16.4c-19,5.4-38.4,9.2-57.9,11.4c-12,1.4-24,1.8-36,2.1c-11.2,0.3-22.8,0-33.4,4.1
	C413.3,703.5,405,708.9,404.4,717.3z"/>
<path class="st1" d="M549.8,392.2c0.1,0,0.2,0,0.3,0s0.2,0,0.3,0H549.8z"/>
<polygon class="st1" points="550.4,392.2 550.4,392.2 553.1,392.2 "/>
<path class="st1" d="M582.2,396.9l3.3,0.2c-0.1,0-0.2,0-0.3,0s-0.1,0-0.2,0L582.2,396.9z"/>
<g>
	<path class="st2" d="M578.4,764.5l-160.7,8c-8.2,0.4-15.1-5.9-15.5-14.1l0,0c-0.4-8.2,5.9-15.1,14.1-15.5l160.7-8
		c8.2-0.4,15.1,5.9,15.5,14.1l0,0C592.9,757.2,586.6,764.1,578.4,764.5z"/>
</g>
<g>
	<path class="st2" d="M577.8,804.1l-160.7,8c-8.2,0.4-15.1-5.9-15.5-14.1l0,0c-0.4-8.2,5.9-15.1,14.1-15.5l160.7-8
		c8.2-0.4,15.1,5.9,15.5,14.1l0,0C592.3,796.8,586,803.7,577.8,804.1z"/>
</g>
<g>
	<path class="st2" d="M578.4,843.7l-160.7,8c-8.2,0.4-15.1-5.9-15.5-14.1l0,0c-0.4-8.2,5.9-15.1,14.1-15.5l160.7-8
		c8.2-0.4,15.1,5.9,15.5,14.1l0,0C592.9,836.4,586.6,843.3,578.4,843.7z"/>
</g>
<path class="st2" d="M567.5,854.1c2,38.8-27.9,71.8-66.7,73.8S429,900,427,861.2L567.5,854.1z"/>
<path class="st1" d="M537.1,389.8c0.1,0,0.2,0,0.2,0c0.1,0,0.1,0,0.2,0H537.1z"/>
<polygon class="st1" points="537.5,389.9 537.5,389.9 539.4,389.9 "/>
<path class="st1" d="M560,393.2l2.3,0.1c-0.1,0-0.1,0-0.2,0c-0.1,0-0.1,0-0.2,0L560,393.2z"/>
<line class="st3" x1="498.5" y1="186.8" x2="498.5" y2="123.1"/>
<rect x="397" y="356.5" class="st4" width="203" height="118.2"/>
<g class="st5">
	<path class="st2" d="M470,494.6h-6.2c-12.5,0-21.1-1.2-25.7-3.5c-3.7-1.9-6.2-4.9-7.4-9c-0.7-2.4-1.1-6.5-1.1-12V450
		c0-6.6-1.2-11.2-3.6-13.9c-2.4-2.7-6.5-4-12.3-4c0.4,0-0.1,0-1.2,0h-1.5v-21.7h1.5c1.2,0,1.6,0,1.2,0c5.7,0,9.8-1.4,12.2-4.1
		c2.5-2.7,3.7-7.4,3.7-13.8v-20.1c0-5.6,0.4-9.7,1.1-12.1c1.1-4.1,3.6-7.2,7.4-9.1c4.7-2.3,13.2-3.5,25.7-3.5h6.2v22
		c0.4,0-0.2,0-1.7,0h-1.6c-4.5,0-7.5,0.8-9.1,2.4c-1.6,1.6-2.4,4.9-2.4,9.9v18.6c0,6.7-1.2,11.5-3.6,14.5c-2.4,3-6.8,5.1-13.3,6.3
		c6.4,1.2,10.8,3.3,13.3,6.2c2.4,2.9,3.6,7.7,3.6,14.3v18.7c0,4.9,0.8,8.1,2.4,9.7c1.6,1.6,4.5,2.4,8.9,2.4c-0.4,0,0.2,0,1.8,0h1.7
		V494.6z"/>
	<path class="st2" d="M512.8,405.3c0,3.7-1.5,6.8-4.4,9.3c-2.9,2.5-6.3,3.7-10.1,3.7c-3.8,0-7.2-1.2-9.9-3.7c-3-2.5-4.4-5.7-4.4-9.4
		c0-3.8,1.5-6.9,4.4-9.5c2.8-2.4,6.1-3.6,9.9-3.6c3.8,0,7.1,1.2,9.9,3.6C511.3,398.4,512.8,401.5,512.8,405.3z M512.8,450.6
		c0,0.6-0.3,1.9-0.8,3.9c-2.2,8.4-6.3,14.8-12.1,19.2l-13.8-0.6c3.6-2.2,7-5.7,10.2-10.6c-3.4-0.5-6.2-1.9-8.6-4.2
		c-2.5-2.5-3.7-5.4-3.7-8.7c0-3.7,1.5-6.9,4.4-9.4c2.8-2.4,6.1-3.7,9.9-3.7c4.2,0,7.7,1.3,10.4,4S512.8,446.4,512.8,450.6z"/>
	<path class="st2" d="M586.2,432h-1.5c-1.2,0-1.6,0-1.2,0c-5.8,0-9.9,1.3-12.3,4c-2.4,2.7-3.6,7.3-3.6,13.9V470
		c0,5.6-0.4,9.7-1.1,12.2c-1.2,4-3.7,7-7.5,9c-4.4,2.2-12.5,3.3-24.5,3.3h-7.3v-21.8h1.7c1.5,0,2,0,1.6,0c4.5,0,7.5-0.8,9.1-2.4
		c1.6-1.6,2.4-4.9,2.4-9.9v-18.7c0-6.6,1.2-11.4,3.6-14.3c2.4-2.9,6.8-5,13.3-6.2c-6.5-1.2-11-3.2-13.3-6.1
		c-2.4-2.9-3.5-7.7-3.5-14.5v-18.7c0-5-0.8-8.3-2.4-9.9c-1.6-1.6-4.6-2.4-9.1-2.4h-1.6c-1.5,0-2,0-1.7,0v-22h6.2
		c12.5,0,21,1.2,25.6,3.5c3.8,2,6.3,5,7.5,9c0.7,2.5,1.1,6.6,1.1,12.2v20.1c0,6.5,1.2,11.1,3.7,13.8c2.5,2.7,6.5,4.1,12.2,4.1
		c-0.4,0,0.1,0,1.2,0h1.5V432z"/>
</g>
<line class="st3" x1="272.2" y1="413.1" x2="209.1" y2="422"/>
<line class="st3" x1="790.9" y1="423.7" x2="727.7" y2="415.9"/>
<line class="st3" x1="338" y1="255.7" x2="293" y2="210.7"/>
<line class="st3" x1="658.6" y1="256.3" x2="703.6" y2="211.2"/>
</svg>
