<?xml version="1.0" encoding="utf-8"?>
<!-- Generator: Adobe Illustrator 25.4.1, SVG Export Plug-In . SVG Version: 6.00 Build 0)  -->
<svg version="1.1" id="Layer_1" xmlns="http://www.w3.org/2000/svg" xmlns:xlink="http://www.w3.org/1999/xlink" x="0px" y="0px"
	 viewBox="0 0 392 464" style="enable-background:new 0 0 392 464;" xml:space="preserve">
<style type="text/css">
	.st0{fill:#F08000;}
	.st1{fill:#575757;}
	.st2{fill:#555555;}
	.st3{fill:none;stroke:#F08000;stroke-width:10.6105;stroke-linecap:round;stroke-miterlimit:10;}
	.st4{fill:none;}
	.st5{enable-background:new    ;}
</style>
<path class="st0" d="M158.4,304.2c-0.1,2.1,1.1,4.2,3.1,4.9c2.3,0.8,4.8,0.6,7.1,0.3c7.8-1.2,15.6-1.6,23.5-2c1-0.1,2-0.1,3-0.2
	c5.8-0.3,11.7-0.7,17.5-1c4.9-0.3,9.9-0.6,14.5-2.4c6.4-2.5,11.5-8,13.5-14.6c1.7-5.4,1.3-11.1,1.8-16.7c2.3-23.1,19.7-41.8,26.7-64
	c8.7-27.5-0.9-59.7-22.7-78.6c-9.3-8.1-20.8-13.6-32.8-16.4c-12.1-2.8-24.9-2.8-36.9,0.1c-12.2,2.9-23.2,9.1-32.3,17.6
	c-7.9,7.4-14.2,16.4-18.3,26.3c-7.4,17.7-7.7,38.1-1,56c7.5,19.9,23.3,37.1,24.9,58.3c0.4,5.2,0.9,12,5.9,13.5
	c2.3,0.7,4.9-0.1,6.6-1.8c2.9-2.7,3.5-6.7,3.6-10.5c0.3-13.3-5.5-25.9-11.9-37.5s-13.7-23.1-16.6-36c-4.4-18.8,1.3-39.6,14.5-53.7
	c13.2-14.1,33.6-21.1,52.7-18.2c19.1,2.9,36.5,15.4,45.3,32.6c5.4,10.6,7.7,22.9,5.9,34.7c-4.3,27.7-29.9,49.8-29.4,77.9
	c0.1,3.9,0.6,8.1-1.3,11.5c-2.1,3.7-6.5,5.3-10.6,6.5c-7.5,2.1-15.1,3.6-22.8,4.5c-4.7,0.5-9.4,0.7-14.2,0.8c-4.4,0.1-9,0-13.1,1.6
	C161.9,298.8,158.6,300.9,158.4,304.2z"/>
<path class="st1" d="M215.6,176.4h0.1h0.1H215.6z"/>
<polygon class="st1" points="215.8,176.4 215.8,176.4 216.9,176.4 "/>
<path class="st1" d="M228.3,178.2l1.3,0.1h-0.1h-0.1L228.3,178.2z"/>
<g>
	<path class="st2" d="M226.8,322.7l-63.2,3.1c-3.2,0.2-5.9-2.3-6.1-5.5l0,0c-0.2-3.2,2.3-5.9,5.5-6.1l63.2-3.1
		c3.2-0.2,5.9,2.3,6.1,5.5l0,0C232.5,319.8,230,322.6,226.8,322.7z"/>
</g>
<g>
	<path class="st2" d="M226.6,338.3l-63.1,3.1c-3.2,0.2-5.9-2.3-6.1-5.5l0,0c-0.2-3.2,2.3-5.9,5.5-6.1l63.1-3.1
		c3.2-0.2,5.9,2.3,6.1,5.5l0,0C232.3,335.4,229.8,338.1,226.6,338.3z"/>
</g>
<g>
	<path class="st2" d="M226.8,353.9l-63.2,3.1c-3.2,0.2-5.9-2.3-6.1-5.5l0,0c-0.2-3.2,2.3-5.9,5.5-6.1l63.2-3.1
		c3.2-0.2,5.9,2.3,6.1,5.5l0,0C232.5,351,230,353.7,226.8,353.9z"/>
</g>
<path class="st2" d="M222.5,357.9c0.8,15.3-11,28.2-26.2,29c-15.3,0.8-28.2-11-29-26.2L222.5,357.9z"/>
<path class="st1" d="M210.6,175.5L210.6,175.5c0.1,0,0.1,0,0.2,0H210.6z"/>
<polygon class="st1" points="210.7,175.5 210.7,175.5 211.5,175.5 "/>
<path class="st1" d="M219.6,176.8l0.9,0.1c0,0,0,0-0.1,0c0,0,0,0-0.1,0L219.6,176.8z"/>
<line class="st3" x1="195.4" y1="95.6" x2="195.4" y2="70.6"/>
<rect x="155.5" y="162.4" class="st4" width="79.8" height="46.5"/>
<g class="st5">
	<path class="st2" d="M184.2,216.6h-2.4c-4.9,0-8.3-0.5-10.1-1.4c-1.5-0.8-2.4-1.9-2.9-3.5c-0.3-1-0.4-2.5-0.4-4.7v-7.9
		c0-2.6-0.5-4.4-1.4-5.5c-0.9-1.1-2.6-1.6-4.8-1.6c0.1,0,0,0-0.5,0H161v-8.5h0.6c0.5,0,0.6,0,0.5,0c2.2,0,3.8-0.5,4.8-1.6
		c1-1.1,1.5-2.9,1.5-5.4v-7.9c0-2.2,0.1-3.8,0.4-4.8c0.4-1.6,1.4-2.8,2.9-3.6c1.8-0.9,5.2-1.4,10.1-1.4h2.4v8.6c0.1,0-0.1,0-0.7,0
		h-0.6c-1.8,0-2.9,0.3-3.6,0.9c-0.6,0.6-0.9,1.9-0.9,3.9v7.3c0,2.6-0.5,4.5-1.4,5.7c-0.9,1.2-2.7,2-5.2,2.5c2.5,0.5,4.3,1.3,5.2,2.4
		c0.9,1.2,1.4,3,1.4,5.6v7.4c0,1.9,0.3,3.2,0.9,3.8c0.6,0.6,1.8,0.9,3.5,0.9c-0.2,0,0.1,0,0.7,0h0.7V216.6z"/>
	<path class="st2" d="M201,181.5c0,1.5-0.6,2.7-1.7,3.7c-1.2,1-2.5,1.5-4,1.5c-1.5,0-2.8-0.5-3.9-1.4c-1.2-1-1.7-2.2-1.7-3.7
		c0-1.5,0.6-2.7,1.7-3.7c1.1-0.9,2.4-1.4,3.9-1.4c1.5,0,2.8,0.5,3.9,1.4C200.5,178.8,201,180.1,201,181.5z M201,199.3
		c0,0.2-0.1,0.7-0.3,1.5c-0.9,3.3-2.5,5.8-4.8,7.5l-5.4-0.2c1.4-0.9,2.8-2.3,4-4.2c-1.3-0.2-2.4-0.7-3.4-1.7c-1-1-1.5-2.1-1.5-3.4
		c0-1.5,0.6-2.7,1.7-3.7c1.1-1,2.4-1.4,3.9-1.4c1.7,0,3,0.5,4.1,1.6S201,197.7,201,199.3z"/>
	<path class="st2" d="M229.9,192h-0.6c-0.5,0-0.6,0-0.5,0c-2.3,0-3.9,0.5-4.8,1.6c-0.9,1.1-1.4,2.9-1.4,5.5v7.9
		c0,2.2-0.1,3.8-0.4,4.8c-0.5,1.6-1.5,2.8-3,3.5c-1.7,0.9-4.9,1.3-9.6,1.3h-2.9V208h0.7c0.6,0,0.8,0,0.6,0c1.8,0,2.9-0.3,3.6-0.9
		c0.6-0.6,0.9-1.9,0.9-3.9v-7.4c0-2.6,0.5-4.5,1.4-5.6c0.9-1.2,2.7-2,5.2-2.4c-2.6-0.5-4.3-1.3-5.2-2.4c-0.9-1.1-1.4-3-1.4-5.7v-7.4
		c0-2-0.3-3.3-0.9-3.9c-0.6-0.6-1.8-0.9-3.6-0.9h-0.6c-0.6,0-0.8,0-0.7,0v-8.6h2.4c4.9,0,8.3,0.5,10.1,1.4c1.5,0.8,2.5,2,3,3.5
		c0.3,1,0.4,2.6,0.4,4.8v7.9c0,2.5,0.5,4.4,1.5,5.4c1,1.1,2.6,1.6,4.8,1.6c-0.1,0,0,0,0.5,0h0.6V192z"/>
</g>
<line class="st3" x1="106.5" y1="184.6" x2="81.7" y2="188.1"/>
<line class="st3" x1="310.3" y1="188.8" x2="285.5" y2="185.7"/>
<line class="st3" x1="132.3" y1="122.7" x2="114.6" y2="105"/>
<line class="st3" x1="258.3" y1="123" x2="276" y2="105.3"/>
</svg>
